<svg width="254" height="76" viewBox="0 0 254 76" fill="none" xmlns="http://www.w3.org/2000/svg">
<path d="M115.577 40.8182C115.577 44.7836 114.825 48.1572 113.322 50.9389C111.83 53.7206 109.794 55.8454 107.214 57.3132C104.645 58.7692 101.757 59.4972 98.549 59.4972C95.3175 59.4972 92.4174 58.7633 89.8487 57.2955C87.2801 55.8277 85.25 53.7029 83.7585 50.9212C82.267 48.1394 81.5213 44.7718 81.5213 40.8182C81.5213 36.8527 82.267 33.4792 83.7585 30.6974C85.25 27.9157 87.2801 25.7969 89.8487 24.3409C92.4174 22.8731 95.3175 22.1392 98.549 22.1392C101.757 22.1392 104.645 22.8731 107.214 24.3409C109.794 25.7969 111.83 27.9157 113.322 30.6974C114.825 33.4792 115.577 36.8527 115.577 40.8182ZM107.782 40.8182C107.782 38.2495 107.397 36.0833 106.628 34.3196C105.87 32.5559 104.799 31.2183 103.414 30.3068C102.029 29.3954 100.407 28.9396 98.549 28.9396C96.6906 28.9396 95.0689 29.3954 93.6839 30.3068C92.299 31.2183 91.2218 32.5559 90.4524 34.3196C89.6948 36.0833 89.3161 38.2495 89.3161 40.8182C89.3161 43.3868 89.6948 45.553 90.4524 47.3168C91.2218 49.0805 92.299 50.4181 93.6839 51.3295C95.0689 52.241 96.6906 52.6967 98.549 52.6967C100.407 52.6967 102.029 52.241 103.414 51.3295C104.799 50.4181 105.87 49.0805 106.628 47.3168C107.397 45.553 107.782 43.3868 107.782 40.8182ZM120.817 59V31.7273H128.381V59H120.817ZM124.617 28.2116C123.492 28.2116 122.528 27.8388 121.723 27.093C120.93 26.3355 120.533 25.4299 120.533 24.3764C120.533 23.3348 120.93 22.4411 121.723 21.6953C122.528 20.9377 123.492 20.5589 124.617 20.5589C125.742 20.5589 126.7 20.9377 127.493 21.6953C128.298 22.4411 128.701 23.3348 128.701 24.3764C128.701 25.4299 128.298 26.3355 127.493 27.093C126.7 27.8388 125.742 28.2116 124.617 28.2116ZM140.982 51.152L140.999 42.0788H142.1L150.836 31.7273H159.518L147.782 45.4347H145.989L140.982 51.152ZM134.128 59V22.6364H141.692V59H134.128ZM151.173 59L143.148 47.1214L148.19 41.777L160.033 59H151.173ZM174.116 59.5327C171.358 59.5327 168.973 58.9467 166.961 57.7749C164.96 56.5911 163.416 54.9458 162.327 52.8388C161.238 50.7199 160.693 48.2637 160.693 45.4702C160.693 42.6529 161.238 40.1908 162.327 38.0838C163.416 35.965 164.96 34.3196 166.961 33.1477C168.973 31.964 171.358 31.3722 174.116 31.3722C176.874 31.3722 179.254 31.964 181.254 33.1477C183.266 34.3196 184.817 35.965 185.906 38.0838C186.995 40.1908 187.54 42.6529 187.54 45.4702C187.54 48.2637 186.995 50.7199 185.906 52.8388C184.817 54.9458 183.266 56.5911 181.254 57.7749C179.254 58.9467 176.874 59.5327 174.116 59.5327ZM174.152 53.6733C175.407 53.6733 176.454 53.3182 177.295 52.608C178.135 51.8859 178.768 50.9034 179.194 49.6605C179.632 48.4176 179.851 47.0031 179.851 45.4169C179.851 43.8307 179.632 42.4162 179.194 41.1733C178.768 39.9304 178.135 38.9479 177.295 38.2259C176.454 37.5038 175.407 37.1428 174.152 37.1428C172.885 37.1428 171.82 37.5038 170.956 38.2259C170.104 38.9479 169.458 39.9304 169.02 41.1733C168.594 42.4162 168.381 43.8307 168.381 45.4169C168.381 47.0031 168.594 48.4176 169.02 49.6605C169.458 50.9034 170.104 51.8859 170.956 52.608C171.82 53.3182 172.885 53.6733 174.152 53.6733ZM216.693 31.7273L207.158 59H198.635L189.1 31.7273H197.09L202.754 51.2408H203.039L208.685 31.7273H216.693ZM227.295 59.5149C225.555 59.5149 224.005 59.2131 222.643 58.6094C221.282 57.9938 220.205 57.0883 219.412 55.8928C218.631 54.6854 218.24 53.1821 218.24 51.3828C218.24 49.8677 218.518 48.5952 219.075 47.5653C219.631 46.5355 220.388 45.7069 221.347 45.0795C222.306 44.4522 223.395 43.9787 224.614 43.6591C225.845 43.3395 227.136 43.1146 228.485 42.9844C230.071 42.8187 231.35 42.6648 232.32 42.5227C233.291 42.3688 233.995 42.1439 234.433 41.848C234.871 41.5521 235.09 41.1141 235.09 40.5341V40.4276C235.09 39.303 234.735 38.433 234.025 37.8175C233.326 37.2019 232.332 36.8942 231.042 36.8942C229.681 36.8942 228.598 37.196 227.793 37.7997C226.988 38.3916 226.455 39.1373 226.195 40.0369L219.199 39.4688C219.554 37.8116 220.252 36.3793 221.294 35.1719C222.336 33.9527 223.679 33.0175 225.325 32.3665C226.982 31.7036 228.899 31.3722 231.077 31.3722C232.593 31.3722 234.043 31.5497 235.428 31.9048C236.824 32.2599 238.061 32.8104 239.138 33.5561C240.228 34.3018 241.086 35.2607 241.713 36.4325C242.34 37.5926 242.654 38.9834 242.654 40.6051V59H235.481V55.218H235.268C234.83 56.0703 234.244 56.822 233.51 57.473C232.776 58.1122 231.894 58.6153 230.864 58.9822C229.835 59.3374 228.645 59.5149 227.295 59.5149ZM229.462 54.2947C230.574 54.2947 231.557 54.0758 232.409 53.6378C233.261 53.188 233.93 52.5843 234.415 51.8267C234.901 51.0691 235.143 50.2109 235.143 49.2521V46.358C234.907 46.5118 234.581 46.6539 234.167 46.7841C233.764 46.9025 233.309 47.0149 232.8 47.1214C232.291 47.2161 231.782 47.3049 231.273 47.3878C230.764 47.4588 230.302 47.5239 229.888 47.5831C229 47.7133 228.225 47.9205 227.562 48.2045C226.899 48.4886 226.384 48.8733 226.017 49.3587C225.65 49.8321 225.467 50.424 225.467 51.1342C225.467 52.1641 225.839 52.9512 226.585 53.4957C227.343 54.0284 228.302 54.2947 229.462 54.2947Z" fill="#FF6B6B"/>
<path d="M61.61 31.6825L57.435 56.6825C57.1531 58.4215 56.268 60.0057 54.935 61.1575C53.5154 62.2917 51.752 62.9089 49.935 62.9075H25.91C24.1533 62.8921 22.4577 62.2604 21.1191 61.1228C19.7804 59.9852 18.8836 58.4137 18.585 56.6825L14.41 31.6825C14.1839 30.2401 14.3837 28.763 14.985 27.4325C15.5861 26.1088 16.5588 24.9884 17.785 24.2075L33.985 14.2075C35.1686 13.4774 36.5318 13.0908 37.9225 13.0908C39.3131 13.0908 40.6764 13.4774 41.86 14.2075L58.035 24.2075C59.3025 24.9575 60.3125 26.075 60.935 27.4075C61.5752 28.7352 61.81 30.2221 61.61 31.6825Z" fill="#FF6B6B"/>
<path d="M39.4516 26.4516C39.4516 26.0666 39.2987 25.6974 39.0264 25.4252C38.7542 25.1529 38.385 25 38 25C37.615 25 37.2458 25.1529 36.9736 25.4252C36.7013 25.6974 36.5484 26.0666 36.5484 26.4516V36.4968L31.4987 31.4452C31.3647 31.3066 31.2045 31.1961 31.0274 31.1201C30.8502 31.0441 30.6597 31.0041 30.467 31.0025C30.2742 31.001 30.0831 31.0378 29.9048 31.1109C29.7264 31.1839 29.5644 31.2918 29.4281 31.4282C29.2919 31.5645 29.1842 31.7266 29.1113 31.9051C29.0384 32.0835 29.0017 32.2747 29.0035 32.4674C29.0053 32.6601 29.0454 32.8506 29.1216 33.0277C29.1977 33.2047 29.3084 33.3649 29.4471 33.4987L34.4948 38.5484H24.4516C24.0666 38.5484 23.6974 38.7013 23.4252 38.9736C23.1529 39.2458 23 39.615 23 40C23 40.385 23.1529 40.7542 23.4252 41.0264C23.6974 41.2987 24.0666 41.4516 24.4516 41.4516H34.4968L29.4452 46.5013C29.3066 46.6353 29.1961 46.7955 29.1201 46.9726C29.0441 47.1498 29.0041 47.3403 29.0025 47.533C29.001 47.7258 29.0378 47.9169 29.1109 48.0952C29.1839 48.2736 29.2918 48.4356 29.4282 48.5719C29.5645 48.7081 29.7266 48.8158 29.9051 48.8887C30.0835 48.9616 30.2747 48.9983 30.4674 48.9965C30.6601 48.9947 30.8506 48.9546 31.0277 48.8784C31.2047 48.8023 31.3649 48.6916 31.4987 48.5529L36.5484 43.5052V53.5484C36.5484 53.9334 36.7013 54.3026 36.9736 54.5748C37.2458 54.8471 37.615 55 38 55C38.385 55 38.7542 54.8471 39.0264 54.5748C39.2987 54.3026 39.4516 53.9334 39.4516 53.5484V43.5032L44.5013 48.5548C44.6353 48.6934 44.7955 48.8039 44.9726 48.8799C45.1498 48.9559 45.3403 48.9959 45.533 48.9975C45.7258 48.999 45.9169 48.9622 46.0952 48.8891C46.2736 48.8161 46.4356 48.7082 46.5719 48.5718C46.7081 48.4355 46.8158 48.2734 46.8887 48.0949C46.9616 47.9165 46.9983 47.7253 46.9965 47.5326C46.9947 47.3398 46.9546 47.1494 46.8784 46.9723C46.8023 46.7953 46.6916 46.6351 46.5529 46.5013L41.5052 41.4516H51.5484C51.9334 41.4516 52.3026 41.2987 52.5748 41.0264C52.8471 40.7542 53 40.385 53 40C53 39.615 52.8471 39.2458 52.5748 38.9736C52.3026 38.7013 51.9334 38.5484 51.5484 38.5484H41.5032L46.5548 33.4987C46.8191 33.2248 46.9653 32.8581 46.9618 32.4774C46.9583 32.0968 46.8055 31.7328 46.5362 31.4638C46.2669 31.1948 45.9028 31.0423 45.5222 31.0392C45.1416 31.0361 44.7749 31.1825 44.5013 31.4471L39.4516 36.4948V26.4516Z" fill="white"/>
</svg>
